{
    "asset" : {
        "generator" : "Khronos glTF Blender I/O v3.3.27",
        "version" : "2.0"
    },
    "scene" : 0,
    "scenes" : [
        {
            "name" : "Scene",
            "nodes" : [
                0
            ]
        }
    ],
    "nodes" : [
        {
            "scale": [
            80,
            80,
            80
        ],
            "mesh" : 0,
            "name" : "rectangular_packaging_box_1500",
            "rotation" : [
                -0.70710688829422,
                0,
                0,
                0.7071066498756409
            ],
            "translation" : [
                0,
                0.05699634924530983,
                0.1163117066025734
            ]
        }
    ],
    "materials" : [
        {
            "alphaCutoff" : 0.5,
            "alphaMode" : "MASK",
            "doubleSided" : true,
            "name" : "Brillant argent\u00e9 3",
            "normalTexture" : {
                "index" : 0
            },
            "pbrMetallicRoughness" : {
                "baseColorTexture" : {
                    "index" : 1
                },
                "metallicRoughnessTexture" : {
                    "index" : 2
                }
            }
        }
    ],
    "meshes" : [
        {
            "name" : "rectangular_packaging_box_1500.004",
            "primitives" : [
                {
                    "attributes" : {
                        "POSITION" : 0,
                        "NORMAL" : 1,
                        "TEXCOORD_0" : 2
                    },
                    "indices" : 3,
                    "material" : 0
                }
            ]
        }
    ],
    "textures" : [
        {
            "sampler" : 0,
            "source" : 0
        },
        {
            "sampler" : 0,
            "source" : 1
        },
        {
            "sampler" : 0,
            "source" : 2
        }
    ],
    "images" : [
        {
            "bufferView" : 4,
            "mimeType" : "image/png",
            "name" : "normal_image_texture"
        },
        {
            "bufferView" : 5,
            "mimeType" : "image/png",
            "name" : "composited_baseColor_opacity"
        },
        {
            "bufferView" : 6,
            "mimeType" : "image/png",
            "name" : "composited_roughness_composited_metallic"
        }
    ],
    "accessors" : [
        {
            "bufferView" : 0,
            "componentType" : 5126,
            "count" : 39100,
            "max" : [
                0.1520688235759735,
                0.2326234132051468,
                0.05699629709124565
            ],
            "min" : [
                -0.1520688235759735,
                0,
                -0.05699629709124565
            ],
            "type" : "VEC3"
        },
        {
            "bufferView" : 1,
            "componentType" : 5126,
            "count" : 39100,
            "type" : "VEC3"
        },
        {
            "bufferView" : 2,
            "componentType" : 5126,
            "count" : 39100,
            "type" : "VEC2"
        },
        {
            "bufferView" : 3,
            "componentType" : 5123,
            "count" : 54696,
            "type" : "SCALAR"
        }
    ],
    "bufferViews" : [
        {
            "buffer" : 0,
            "byteLength" : 469200,
            "byteOffset" : 0,
            "target" : 34962
        },
        {
            "buffer" : 0,
            "byteLength" : 469200,
            "byteOffset" : 469200,
            "target" : 34962
        },
        {
            "buffer" : 0,
            "byteLength" : 312800,
            "byteOffset" : 938400,
            "target" : 34962
        },
        {
            "buffer" : 0,
            "byteLength" : 109392,
            "byteOffset" : 1251200,
            "target" : 34963
        },
        {
            "buffer" : 0,
            "byteLength" : 73855,
            "byteOffset" : 1360592
        },
        {
            "buffer" : 0,
            "byteLength" : 23215,
            "byteOffset" : 1434448
        },
        {
            "buffer" : 0,
            "byteLength" : 28548,
            "byteOffset" : 1457664
        }
    ],
    "samplers" : [
        {
            "magFilter" : 9729,
            "minFilter" : 9987
        }
    ],
    "buffers" : [
        {
            "byteLength" : 1486212,
            "uri" : "data:application/octet-stream;base64,"
        }
    ]
}
